<?xml version="1.0" encoding="UTF-8"?>
<svg width="128" height="128" viewBox="0 0 128 128" version="1.1" xmlns="http://www.w3.org/2000/svg">
  <g fill="#000000">
    <path d="M20 28C20 21.373 25.373 16 32 16H96C102.627 16 108 21.373 108 28V86C108 92.627 102.627 98 96 98H68L44 112V98H32C25.373 98 20 92.627 20 86V28ZM32 24C29.791 24 28 25.791 28 28V86C28 88.209 29.791 90 32 90H52V97.874L65.848 90H96C98.209 90 100 88.209 100 86V28C100 25.791 98.209 24 96 24H32Z"/>
    <rect x="36" y="38" width="56" height="8" rx="4"/>
    <rect x="36" y="58" width="34" height="8" rx="4"/>
  </g>
</svg>
